<svg xmlns="http://www.w3.org/2000/svg" viewBox="0 0 64 64">
  <rect x="6" y="4" width="52" height="56" rx="6" fill="#0D1B2E" />
  <rect x="8.5" y="6.5" width="47" height="51" rx="4" fill="none" stroke="#C9A84C" stroke-width="1" opacity="0.45" />
  <g fill="none" stroke="#C9A84C" stroke-width="1.4" stroke-linecap="round">
    <circle cx="32" cy="31" r="13" opacity="0.9" />
    <ellipse cx="32" cy="31" rx="13" ry="5.5" opacity="0.55" />
    <ellipse cx="32" cy="31" rx="5.5" ry="13" opacity="0.45" />
    <line x1="19" y1="31" x2="45" y2="31" opacity="0.55" />
  </g>
  <g fill="#C9A84C">
    <polygon points="32,11 34,18 32,16.5 30,18" opacity="0.95" />
    <polygon points="32,51 34,44 32,45.5 30,44" opacity="0.95" />
    <polygon points="12,31 19,29 17.5,31 19,33" opacity="0.95" />
    <polygon points="52,31 45,29 46.5,31 45,33" opacity="0.95" />
    <circle cx="32" cy="31" r="1.7" />
  </g>
</svg>
